<svg width="307" height="307" viewBox="0 0 307 307" fill="none" xmlns="http://www.w3.org/2000/svg">
<path d="M136.152 242.265C137.794 229.841 129.82 220.957 124.175 216.907C145.444 208.712 151.841 201.429 156.503 196.565L157.654 250.743L130.134 267.41C131.455 264.205 134.509 254.69 136.152 242.265Z" fill="url(#paint0_linear_1125_332)"/>
<path d="M82.5256 84.961C96.2077 56.0797 132.469 47.9634 149.317 46.6129L150.978 46.5777L151.42 67.4157L126.756 84.0218L127.704 128.675C124.157 129.941 116.143 133.924 116.842 144.392C117.715 157.478 128.412 162.016 138.604 159.417C136.576 176.138 146.65 179.874 150.843 180.976C148.689 191.743 141.105 199.272 124.004 207.378C106.902 215.485 93.2322 216.37 87.3613 214.708C81.518 213.054 80.4403 203.538 81.649 198.152C82.763 193.187 80.9145 191.615 77.8745 188.701C74.8344 185.788 75.9746 183.381 78.9176 181.532C81.8606 179.682 80.6617 179.708 75.8861 179.213C71.1104 178.719 74.5436 172.094 77.432 167.863C80.3203 163.633 68.4858 163.816 64.1632 159.806C59.7691 155.73 68.4958 145.419 72.6572 139.374C77.4327 132.437 78.3752 127.935 77.6028 119.613C76.8304 111.29 74.8294 101.207 82.5256 84.961Z" fill="url(#paint1_linear_1125_332)"/>
<path d="M102.626 126.822C94.9851 126.031 89.8574 123.916 88.2487 122.958C88.2891 124.863 86.8212 130.533 86.0821 133.13C89.6291 131.863 97.9036 128.828 102.626 126.822Z" fill="#00FFFF"/>
<path d="M167.092 189.187L168.154 239.199L174.602 234.297L173.717 192.621L183.661 184.07L182.271 118.579L218.602 90.4083L217.92 58.2582L211.966 58.3846L212.585 87.5579L175.658 115.742L177.024 180.042L167.092 189.187Z" fill="url(#paint2_linear_1125_332)"/>
<path d="M191.298 167.823L192.12 206.528L199.226 204.59L198.518 171.249L208.161 158.53L207.554 129.952L232.7 107.981L227.836 103.319L200.36 127.728L200.928 154.514L191.298 167.823Z" fill="url(#paint3_linear_1125_332)"/>
<path d="M161.015 71.9777L160.509 48.1627C161.462 48.1425 164.85 46.8793 166.425 46.2502L167.044 75.4235L143.558 91.4089L144.57 139.039L138.616 139.165L137.541 88.5584L161.015 71.9777Z" fill="url(#paint4_linear_1125_332)"/>
<path d="M185.053 80.9987L184.408 50.6347C185.551 50.6104 188.446 50.0801 190.336 49.3175L191.088 84.7019L162.884 102.913L164.135 161.855L158.181 161.981L156.867 100.062L185.053 80.9987Z" fill="url(#paint5_linear_1125_332)"/>
<rect x="179.383" y="38.8232" width="16.6742" height="16.6742" rx="8.3371" transform="rotate(-1.21647 179.383 38.8232)" fill="url(#paint6_linear_1125_332)"/>
<rect x="209.99" y="50.6841" width="8.3371" height="8.3371" rx="4.16855" transform="rotate(-1.21647 209.99 50.6841)" stroke="#CF2BBE" stroke-width="8.3371"/>
<rect x="228.889" y="97.9346" width="8.3371" height="8.3371" rx="4.16855" transform="rotate(-1.21647 228.889 97.9346)" stroke="url(#paint7_linear_1125_332)" stroke-width="8.3371"/>
<rect x="171.289" y="108.095" width="16.6742" height="16.6742" rx="8.3371" transform="rotate(-1.21647 171.289 108.095)" fill="black"/>
<rect x="171.289" y="108.095" width="16.6742" height="16.6742" rx="8.3371" transform="rotate(-1.21647 171.289 108.095)" fill="url(#paint8_linear_1125_332)"/>
<rect x="171.289" y="108.095" width="16.6742" height="16.6742" rx="8.3371" transform="rotate(-1.21647 171.289 108.095)" fill="url(#paint9_linear_1125_332)"/>
<rect x="171.289" y="108.095" width="16.6742" height="16.6742" rx="8.3371" transform="rotate(-1.21647 171.289 108.095)" fill="url(#paint10_linear_1125_332)"/>
<rect x="197.016" y="119.846" width="16.6742" height="16.6742" rx="8.3371" transform="rotate(-1.21647 197.016 119.846)" fill="black"/>
<rect x="197.016" y="119.846" width="16.6742" height="16.6742" rx="8.3371" transform="rotate(-1.21647 197.016 119.846)" fill="url(#paint11_linear_1125_332)"/>
<rect x="197.016" y="119.846" width="16.6742" height="16.6742" rx="8.3371" transform="rotate(-1.21647 197.016 119.846)" fill="url(#paint12_linear_1125_332)"/>
<rect x="197.016" y="119.846" width="16.6742" height="16.6742" rx="8.3371" transform="rotate(-1.21647 197.016 119.846)" fill="url(#paint13_linear_1125_332)"/>
<rect x="152.062" y="156.147" width="16.6742" height="16.6742" rx="8.3371" transform="rotate(-1.21647 152.062 156.147)" fill="url(#paint14_linear_1125_332)"/>
<rect x="132.492" y="130.357" width="16.6742" height="16.6742" rx="8.3371" transform="rotate(-1.21647 132.492 130.357)" fill="black"/>
<rect x="132.492" y="130.357" width="16.6742" height="16.6742" rx="8.3371" transform="rotate(-1.21647 132.492 130.357)" fill="url(#paint15_linear_1125_332)"/>
<rect x="132.492" y="130.357" width="16.6742" height="16.6742" rx="8.3371" transform="rotate(-1.21647 132.492 130.357)" fill="url(#paint16_linear_1125_332)"/>
<rect x="132.492" y="130.357" width="16.6742" height="16.6742" rx="8.3371" transform="rotate(-1.21647 132.492 130.357)" fill="url(#paint17_linear_1125_332)"/>
<path d="M222.062 96.2959L222.069 96.3013L222.074 96.3026L222.062 96.2959Z" fill="black"/>
<path d="M211.289 199.163L211.293 199.158L211.295 199.154L211.289 199.163Z" fill="black"/>
<path d="M223.359 194.873L224.163 195.304L224.162 195.304L223.359 194.873Z" fill="black"/>
<path d="M229.406 147.661L229.409 147.657L229.411 147.651L229.406 147.661Z" fill="black"/>
<path d="M242.328 143.818L242.334 143.822L242.339 143.824L242.328 143.818Z" fill="black"/>
<path d="M240.898 115.865L241.702 116.297L241.701 116.297L240.898 115.865Z" fill="black"/>
<path d="M228.828 120.157L228.832 120.152L228.833 120.147L228.828 120.157Z" fill="black"/>
<path d="M88.2334 122.962C78.5677 71.7035 126.5 54.2459 151.058 51.3419L151.386 67.4173L126.721 84.0233L127.67 128.676C117.548 128.891 94.2782 127.003 88.2334 122.962Z" fill="url(#paint18_linear_1125_332)" fill-opacity="0.3"/>
<path d="M233.531 173.489L233.541 173.483L233.549 173.478L233.531 173.489Z" fill="black"/>
<rect x="190.678" y="206.143" width="8.3371" height="8.3371" rx="4.16855" transform="rotate(-1.21647 190.678 206.143)" stroke="url(#paint19_linear_1125_332)" stroke-width="8.3371"/>
<path d="M207.243 188.2C211.595 204.086 210.058 216.67 208.737 218.827L187.601 232.974L165.268 248.661C168.255 246.694 215.215 222.877 218.037 221.354C218.792 212.374 220.083 202.175 216.499 189.83C244.068 158.489 233.426 132.884 226.606 120.481C235.472 155.77 220.834 172.586 207.301 188.134L207.243 188.2Z" fill="url(#paint20_linear_1125_332)"/>
<path d="M69.4159 160.285C62.7174 158.998 65.6465 150.842 67.9522 147.219C83.9355 142.512 115.517 136.33 116.785 146.778C118.229 158.664 130.212 161.979 138.495 159.414C137.063 176.123 146.462 179.298 151.465 181.177C144.259 206.354 105.736 215.511 95.0071 215.143C84.2778 214.776 85.1502 199.859 86.2271 194.475C87.3041 189.091 82.5285 188.597 80.1091 186.862C77.6896 185.126 78.8425 183.315 81.186 181.478C83.5296 179.641 82.2756 176.69 78.7034 176.766C75.1312 176.841 77.4242 172.623 78.577 170.812C80.1094 168.404 81.4929 167.779 80.8343 164.815C80.4484 163.078 77.7891 161.894 69.4159 160.285Z" fill="url(#paint21_linear_1125_332)" fill-opacity="0.3"/>
<path d="M69.4159 160.285C62.7174 158.998 65.6465 150.842 67.9522 147.219C83.9355 142.512 115.517 136.33 116.785 146.778C118.229 158.664 130.212 161.979 138.495 159.414C137.063 176.123 146.462 179.298 151.465 181.177C144.259 206.354 105.736 215.511 95.0071 215.143C84.2778 214.776 83.9743 200.486 85.0513 195.103C86.1283 189.719 80.1493 188.655 77.7298 186.919C75.3104 185.184 76.7098 183.217 79.4022 181.523C82.3411 179.674 82.8859 177.28 78.7034 176.766C75.157 176.33 77.4242 172.623 78.577 170.812C80.1094 168.404 81.4929 167.779 80.8343 164.815C80.4484 163.078 77.7891 161.894 69.4159 160.285Z" fill="url(#paint22_linear_1125_332)" fill-opacity="0.8"/>
<defs>
<linearGradient id="paint0_linear_1125_332" x1="182.42" y1="210.906" x2="147.064" y2="256.925" gradientUnits="userSpaceOnUse">
<stop stop-color="#0B09B8"/>
<stop offset="1" stop-color="#0078D3"/>
</linearGradient>
<linearGradient id="paint1_linear_1125_332" x1="222.347" y1="80.5745" x2="141.785" y2="202.094" gradientUnits="userSpaceOnUse">
<stop stop-color="#0B09B8"/>
<stop offset="1" stop-color="#0078D3"/>
</linearGradient>
<linearGradient id="paint2_linear_1125_332" x1="169.591" y1="64.6984" x2="231.44" y2="199.325" gradientUnits="userSpaceOnUse">
<stop stop-color="#FF3AB4"/>
<stop offset="1" stop-color="#4800D8"/>
</linearGradient>
<linearGradient id="paint3_linear_1125_332" x1="210.273" y1="103.692" x2="180.264" y2="247.283" gradientUnits="userSpaceOnUse">
<stop stop-color="#FF7D00"/>
<stop offset="1" stop-color="#D9009C"/>
</linearGradient>
<linearGradient id="paint4_linear_1125_332" x1="148.171" y1="56.1681" x2="171.714" y2="143.843" gradientUnits="userSpaceOnUse">
<stop stop-color="#00A2BE"/>
<stop offset="1" stop-color="#4D1FFC"/>
</linearGradient>
<linearGradient id="paint5_linear_1125_332" x1="159.048" y1="53.3522" x2="197.767" y2="136.915" gradientUnits="userSpaceOnUse">
<stop stop-color="#6B40FF"/>
<stop offset="1" stop-color="#0178D3"/>
</linearGradient>
<linearGradient id="paint6_linear_1125_332" x1="180.914" y1="39.3251" x2="182.9" y2="54.0305" gradientUnits="userSpaceOnUse">
<stop stop-color="#FF3AB4"/>
<stop offset="1" stop-color="#4800D8"/>
</linearGradient>
<linearGradient id="paint7_linear_1125_332" x1="239.079" y1="99.0523" x2="231.762" y2="116.001" gradientUnits="userSpaceOnUse">
<stop stop-color="#FF8400"/>
<stop offset="1" stop-color="#880058"/>
</linearGradient>
<linearGradient id="paint8_linear_1125_332" x1="163.673" y1="116.673" x2="179.866" y2="132.866" gradientUnits="userSpaceOnUse">
<stop stop-color="#FF5F6D"/>
<stop offset="1" stop-color="#FFC371"/>
</linearGradient>
<linearGradient id="paint9_linear_1125_332" x1="172.82" y1="108.597" x2="174.807" y2="123.302" gradientUnits="userSpaceOnUse">
<stop stop-color="#00DAFF"/>
<stop offset="1" stop-color="#0256DA"/>
</linearGradient>
<linearGradient id="paint10_linear_1125_332" x1="190.84" y1="99.6226" x2="187.993" y2="126.353" gradientUnits="userSpaceOnUse">
<stop stop-color="#0200A4"/>
<stop offset="1" stop-color="#0078D3"/>
</linearGradient>
<linearGradient id="paint11_linear_1125_332" x1="189.399" y1="128.423" x2="205.593" y2="144.617" gradientUnits="userSpaceOnUse">
<stop stop-color="#FF5F6D"/>
<stop offset="1" stop-color="#FFC371"/>
</linearGradient>
<linearGradient id="paint12_linear_1125_332" x1="198.547" y1="120.348" x2="200.533" y2="135.053" gradientUnits="userSpaceOnUse">
<stop stop-color="#00DAFF"/>
<stop offset="1" stop-color="#0256DA"/>
</linearGradient>
<linearGradient id="paint13_linear_1125_332" x1="216.567" y1="111.374" x2="213.719" y2="138.104" gradientUnits="userSpaceOnUse">
<stop stop-color="#0200A4"/>
<stop offset="1" stop-color="#0078D3"/>
</linearGradient>
<linearGradient id="paint14_linear_1125_332" x1="171.613" y1="147.675" x2="168.766" y2="174.405" gradientUnits="userSpaceOnUse">
<stop stop-color="#0200A4"/>
<stop offset="1" stop-color="#0078D3"/>
</linearGradient>
<linearGradient id="paint15_linear_1125_332" x1="124.876" y1="138.934" x2="141.069" y2="155.128" gradientUnits="userSpaceOnUse">
<stop stop-color="#FF5F6D"/>
<stop offset="1" stop-color="#FFC371"/>
</linearGradient>
<linearGradient id="paint16_linear_1125_332" x1="134.024" y1="130.859" x2="136.01" y2="145.564" gradientUnits="userSpaceOnUse">
<stop stop-color="#00DAFF"/>
<stop offset="1" stop-color="#0256DA"/>
</linearGradient>
<linearGradient id="paint17_linear_1125_332" x1="152.043" y1="121.884" x2="149.196" y2="148.614" gradientUnits="userSpaceOnUse">
<stop stop-color="#0200A4"/>
<stop offset="1" stop-color="#0078D3"/>
</linearGradient>
<linearGradient id="paint18_linear_1125_332" x1="126.368" y1="66.7572" x2="105.021" y2="127.37" gradientUnits="userSpaceOnUse">
<stop stop-color="#01A6F0"/>
<stop offset="1" stop-color="#0259B1"/>
</linearGradient>
<linearGradient id="paint19_linear_1125_332" x1="187.953" y1="202.566" x2="189.94" y2="217.271" gradientUnits="userSpaceOnUse">
<stop stop-color="#FF3AB4"/>
<stop offset="1" stop-color="#4800D8"/>
</linearGradient>
<linearGradient id="paint20_linear_1125_332" x1="225.102" y1="158.407" x2="171.111" y2="267.735" gradientUnits="userSpaceOnUse">
<stop stop-color="#FF8400"/>
<stop offset="1" stop-color="#880058"/>
</linearGradient>
<linearGradient id="paint21_linear_1125_332" x1="117.938" y1="144.966" x2="113.916" y2="196.651" gradientUnits="userSpaceOnUse">
<stop stop-color="#0259B1"/>
<stop offset="1" stop-color="#01A6F0"/>
</linearGradient>
<linearGradient id="paint22_linear_1125_332" x1="120.407" y1="177.078" x2="146.253" y2="200.32" gradientUnits="userSpaceOnUse">
<stop stop-color="#0156C5"/>
<stop offset="1" stop-color="#062B7D"/>
</linearGradient>
</defs>
</svg>
