<svg width="263" height="70" viewBox="0 0 263 70" fill="none" xmlns="http://www.w3.org/2000/svg">
<path d="M23.7034 55.9501C24.1226 53.225 22.4103 51.2336 21.1875 50.3165C25.904 48.6133 27.3451 47.0413 28.3932 45.9932V57.9153L22.2622 61.4526C22.5679 60.7539 23.2841 58.6752 23.7034 55.9501Z" fill="url(#paint0_linear_154_4430)"/>
<path d="M12.6399 21.0999C15.7842 14.8112 23.7979 13.1954 27.51 12.9771H27.8755V17.5625L22.373 21.0999V30.9259C21.5869 31.1879 19.8055 32.0264 19.9103 34.3323C20.0413 37.2146 22.373 38.2627 24.6268 37.7386C24.1027 41.407 26.301 42.2757 27.218 42.5378C26.694 44.896 24.9908 46.5165 21.1914 48.2197C17.392 49.9229 14.3811 50.0539 13.0976 49.6608C11.82 49.2696 11.6274 47.1716 11.9184 45.9925C12.1867 44.9057 11.7874 44.5513 11.1324 43.8962C10.4773 43.2412 10.7393 42.7171 11.3953 42.3241C12.0513 41.931 11.7874 41.931 10.7393 41.8C9.69121 41.669 10.4773 40.2279 11.1324 39.3108C11.7874 38.3937 9.18352 38.3787 8.25148 37.4766C7.30402 36.5595 9.27165 34.3323 10.2152 33.0221C11.298 31.5186 11.5263 30.5329 11.3953 28.6987C11.2643 26.8645 10.8712 24.6373 12.6399 21.0999Z" fill="url(#paint1_linear_154_4430)"/>
<path d="M16.8676 30.4012C15.1906 30.1916 14.0726 29.7025 13.7233 29.4841C13.7233 29.9034 13.3739 31.1436 13.1992 31.7114C13.9853 31.4493 15.8195 30.8205 16.8676 30.4012Z" fill="#00FFFF"/>
<path d="M30.7539 44.4196V55.4247L32.1951 54.3766V45.2057L34.4223 43.3715V28.96L42.5451 22.9334V15.8586H41.235V22.2783L32.9811 28.3049V42.4544L30.7539 44.4196Z" fill="url(#paint2_linear_154_4430)"/>
<path d="M36.1758 39.8336V48.3507L37.7479 47.9577V40.6209L39.9283 37.8684V31.5797L45.5619 26.8645L44.5138 25.8164L38.3562 31.0569V36.9513L36.1758 39.8336Z" fill="url(#paint3_linear_154_4430)"/>
<path d="M29.9632 18.6106V13.3701C30.1728 13.3701 30.924 13.1081 31.2733 12.9771V19.3967L26.0328 22.8031V33.2841H24.7227V22.148L29.9632 18.6106Z" fill="url(#paint4_linear_154_4430)"/>
<path d="M35.2105 20.7071L35.2105 14.0255C35.4621 14.0255 36.1014 13.9223 36.5207 13.7634V21.5499L30.232 25.4236L30.232 38.394H28.9219V24.7686L35.2105 20.7071Z" fill="url(#paint5_linear_154_4430)"/>
<rect x="34.1602" y="11.4041" width="3.66838" height="3.66838" rx="1.83419" fill="url(#paint6_linear_154_4430)"/>
<rect x="26.832" y="8" width="4.45446" height="4.45446" rx="2.22723" fill="url(#paint7_linear_154_4430)"/>
<rect x="40.839" y="14.1561" width="1.83419" height="1.83419" rx="0.917095" stroke="#CF2BBE" stroke-width="1.83419"/>
<rect x="44.7726" y="24.6371" width="1.83419" height="1.83419" rx="0.917095" stroke="url(#paint8_linear_154_4430)" stroke-width="1.83419"/>
<rect x="32.0586" y="26.603" width="3.66838" height="3.66838" rx="1.83419" fill="black"/>
<rect x="32.0586" y="26.603" width="3.66838" height="3.66838" rx="1.83419" fill="url(#paint9_linear_154_4430)"/>
<rect x="32.0586" y="26.603" width="3.66838" height="3.66838" rx="1.83419" fill="url(#paint10_linear_154_4430)"/>
<rect x="32.0586" y="26.603" width="3.66838" height="3.66838" rx="1.83419" fill="url(#paint11_linear_154_4430)"/>
<rect x="37.6641" y="29.3079" width="3.66838" height="3.66838" rx="1.83419" fill="black"/>
<rect x="37.6641" y="29.3079" width="3.66838" height="3.66838" rx="1.83419" fill="url(#paint12_linear_154_4430)"/>
<rect x="37.6641" y="29.3079" width="3.66838" height="3.66838" rx="1.83419" fill="url(#paint13_linear_154_4430)"/>
<rect x="37.6641" y="29.3079" width="3.66838" height="3.66838" rx="1.83419" fill="url(#paint14_linear_154_4430)"/>
<rect x="27.6055" y="37.0825" width="3.66838" height="3.66838" rx="1.83419" fill="url(#paint15_linear_154_4430)"/>
<rect x="23.418" y="31.3184" width="3.66838" height="3.66838" rx="1.83419" fill="black"/>
<rect x="23.418" y="31.3184" width="3.66838" height="3.66838" rx="1.83419" fill="url(#paint16_linear_154_4430)"/>
<rect x="23.418" y="31.3184" width="3.66838" height="3.66838" rx="1.83419" fill="url(#paint17_linear_154_4430)"/>
<rect x="23.418" y="31.3184" width="3.66838" height="3.66838" rx="1.83419" fill="url(#paint18_linear_154_4430)"/>
<path d="M43.2812 24.2446L43.2824 24.2457L43.2834 24.2459L43.2812 24.2446Z" fill="black"/>
<path d="M43.1016 45.9331L43.2762 46.0317H43.276L43.1016 45.9331Z" fill="black"/>
<path d="M47.5156 34.792L47.5168 34.7927L47.5178 34.7932L47.5156 34.792Z" fill="black"/>
<path d="M47.3281 28.6372L47.5028 28.736H47.5026L47.3281 28.6372Z" fill="black"/>
<path d="M13.7216 29.485C11.8351 18.1654 22.4594 14.5494 27.8746 14.0254L27.8717 17.5628L22.3691 21.1001V30.9261C20.1419 30.9261 15.0323 30.4021 13.7216 29.485Z" fill="url(#paint19_linear_154_4430)" fill-opacity="0.3"/>
<path d="M45.4414 41.2769L45.4435 41.2758L45.4451 41.2747L45.4414 41.2769Z" fill="black"/>
<rect x="35.8663" y="48.2596" width="1.83419" height="1.83419" rx="0.917095" stroke="url(#paint20_linear_154_4430)" stroke-width="1.83419"/>
<path d="M39.5912 44.3903C40.4743 47.9047 40.0774 50.6654 39.7768 51.1337L35.0618 54.1468L30.0764 57.4929C30.7426 57.0741 41.1828 52.0549 41.8106 51.7331C42.0185 49.7614 42.3502 47.5242 41.6197 44.792C47.8299 38.0272 45.6087 32.3457 44.1666 29.5856C45.9518 37.3891 42.6537 41.0194 39.6043 44.376L39.5912 44.3903Z" fill="url(#paint21_linear_154_4430)"/>
<path d="M9.40482 37.6065C7.93747 37.2921 8.61983 35.5119 9.14389 34.7258C12.6815 33.765 19.6567 32.5529 19.887 34.8568C20.149 37.478 22.7693 38.2632 24.603 37.7376C24.21 41.406 26.2625 42.1484 27.3543 42.5851C25.6516 48.0892 17.1357 49.9234 14.7775 49.7924C12.4192 49.6614 12.6808 46.3844 12.9428 45.2053C13.2048 44.0262 12.1567 43.8952 11.6327 43.5021C11.1086 43.1091 11.3707 42.716 11.8947 42.323C12.4188 41.93 12.1567 41.2749 11.3707 41.2749C10.5846 41.2749 11.1086 40.3578 11.3707 39.9648C11.719 39.4423 12.0262 39.3113 11.8952 38.6562C11.8184 38.2723 11.239 37.9996 9.40482 37.6065Z" fill="url(#paint22_linear_154_4430)" fill-opacity="0.3"/>
<path d="M9.40482 37.6065C7.93747 37.2921 8.61983 35.5119 9.14389 34.7258C12.6815 33.765 19.6567 32.5529 19.887 34.8568C20.149 37.478 22.7693 38.2632 24.603 37.7376C24.21 41.406 26.2625 42.1484 27.3543 42.5851C25.6516 48.0892 17.1357 49.9234 14.7775 49.7924C12.4192 49.6614 12.4192 46.517 12.6813 45.3379C12.9433 44.1588 11.6331 43.8967 11.1091 43.5037C10.585 43.1106 10.902 42.6846 11.5021 42.3246C12.1572 41.9315 12.2882 41.4075 11.3707 41.2749C10.5927 41.1625 11.1086 40.3578 11.3707 39.9648C11.719 39.4423 12.0262 39.3113 11.8952 38.6562C11.8184 38.2723 11.239 37.9996 9.40482 37.6065Z" fill="url(#paint23_linear_154_4430)" fill-opacity="0.8"/>
<path d="M59.9547 46.7263H55.7363V23.4602H59.9547V46.7263ZM88.1369 44.9254C88.1369 45.2282 88.0774 45.5095 87.9584 45.7691C87.8502 46.0287 87.6988 46.2558 87.5041 46.4505C87.3202 46.6344 87.0985 46.7804 86.8389 46.8886C86.5793 46.9967 86.3035 47.0508 86.0115 47.0508C85.7519 47.0508 85.4869 47.0021 85.2164 46.9048C84.9569 46.8074 84.7243 46.6506 84.5188 46.4343L69.1054 30.3394V46.7263H64.887V25.2611C64.887 24.8285 65.006 24.4391 65.2439 24.0929C65.4927 23.736 65.8064 23.471 66.1849 23.2979C66.5852 23.1357 66.9962 23.0978 67.418 23.1844C67.8399 23.2601 68.2022 23.4548 68.5051 23.7685L83.9185 39.8471V23.4602H88.1369V44.9254ZM114.08 27.6786H104.783V46.7263H100.565V27.6786H91.252V23.4602H114.08V27.6786ZM136.324 37.2187H123.004V32.9678H136.324V37.2187ZM138.222 46.7263H123.004C122.42 46.7263 121.781 46.6236 121.089 46.4181C120.397 46.2125 119.753 45.8772 119.158 45.4121C118.574 44.9362 118.082 44.3251 117.682 43.5787C117.293 42.8216 117.098 41.8968 117.098 40.8043V25.5856C117.098 25.2936 117.152 25.0178 117.26 24.7582C117.368 24.4986 117.514 24.2714 117.698 24.0767C117.893 23.882 118.12 23.7306 118.38 23.6224C118.639 23.5143 118.92 23.4602 119.223 23.4602H138.222V27.6786H121.316V40.8043C121.316 41.356 121.462 41.7778 121.754 42.0698C122.046 42.3619 122.474 42.5079 123.036 42.5079H138.222V46.7263ZM163.679 46.7263H144.436C144.134 46.7263 143.852 46.6722 143.593 46.5641C143.333 46.4559 143.106 46.3099 142.911 46.126C142.727 45.9313 142.581 45.7042 142.473 45.4446C142.365 45.185 142.311 44.9038 142.311 44.6009V23.4602H146.529V42.5079H163.679V46.7263ZM188.146 46.7263H168.903C168.6 46.7263 168.319 46.6722 168.059 46.5641C167.8 46.4559 167.573 46.3099 167.378 46.126C167.194 45.9313 167.048 45.7042 166.94 45.4446C166.832 45.185 166.778 44.9038 166.778 44.6009V23.4602H170.996V42.5079H188.146V46.7263ZM195.495 46.7263H191.277V23.4602H195.495V46.7263ZM224.846 37.316C224.846 38.733 224.602 40.0364 224.116 41.2262C223.629 42.416 222.953 43.4435 222.088 44.3088C221.222 45.1742 220.195 45.8502 219.005 46.3369C217.826 46.8128 216.539 47.0508 215.143 47.0508H209.432C208.037 47.0508 206.744 46.8128 205.555 46.3369C204.365 45.8502 203.337 45.1742 202.472 44.3088C201.607 43.4435 200.925 42.416 200.428 41.2262C199.941 40.0364 199.698 38.733 199.698 37.316V32.8705C199.698 31.4643 199.941 30.1664 200.428 28.9766C200.925 27.7759 201.607 26.7484 202.472 25.8939C203.337 25.0286 204.365 24.3525 205.555 23.8658C206.744 23.3791 208.037 23.1357 209.432 23.1357H215.143C216.539 23.1357 217.826 23.3791 219.005 23.8658C220.195 24.3525 221.222 25.0286 222.088 25.8939C222.953 26.7484 223.629 27.7759 224.116 28.9766C224.602 30.1664 224.846 31.4643 224.846 32.8705V37.316ZM220.627 32.8705C220.627 32.0376 220.492 31.2859 220.222 30.6153C219.962 29.9338 219.589 29.3551 219.102 28.8792C218.626 28.3925 218.048 28.0193 217.366 27.7597C216.696 27.4893 215.955 27.3541 215.143 27.3541H209.432C208.61 27.3541 207.858 27.4893 207.177 27.7597C206.506 28.0193 205.928 28.3925 205.441 28.8792C204.954 29.3551 204.576 29.9338 204.305 30.6153C204.046 31.2859 203.916 32.0376 203.916 32.8705V37.316C203.916 38.1489 204.046 38.906 204.305 39.5875C204.576 40.2581 204.954 40.8368 205.441 41.3235C205.928 41.7994 206.506 42.1726 207.177 42.443C207.858 42.7026 208.61 42.8324 209.432 42.8324H215.111C215.933 42.8324 216.679 42.7026 217.35 42.443C218.031 42.1726 218.615 41.7994 219.102 41.3235C219.589 40.8368 219.962 40.2581 220.222 39.5875C220.492 38.906 220.627 38.1489 220.627 37.316V32.8705ZM252.233 36.9915C252.233 38.4085 251.984 39.7119 251.487 40.9017C251 42.0915 250.324 43.119 249.458 43.9844C248.593 44.8389 247.566 45.5095 246.376 45.9962C245.186 46.4829 243.893 46.7263 242.498 46.7263H231.108C230.806 46.7263 230.524 46.6722 230.265 46.5641C230.005 46.4559 229.778 46.3099 229.583 46.126C229.399 45.9313 229.253 45.7042 229.145 45.4446C229.037 45.185 228.983 44.9038 228.983 44.6009V25.5856C228.983 25.2936 229.037 25.0178 229.145 24.7582C229.253 24.4986 229.399 24.2714 229.583 24.0767C229.778 23.882 230.005 23.7306 230.265 23.6224C230.524 23.5143 230.806 23.4602 231.108 23.4602H242.498C243.893 23.4602 245.186 23.7036 246.376 24.1903C247.566 24.677 248.593 25.3531 249.458 26.2184C250.324 27.0729 251 28.1004 251.487 29.3011C251.984 30.4909 252.233 31.7888 252.233 33.195V36.9915ZM248.014 33.195C248.014 32.3729 247.879 31.6212 247.609 30.9397C247.349 30.2583 246.976 29.6796 246.489 29.2037C246.003 28.717 245.419 28.3438 244.737 28.0842C244.066 27.8138 243.32 27.6786 242.498 27.6786H233.201V42.5079H242.498C243.32 42.5079 244.066 42.3781 244.737 42.1185C245.419 41.8481 246.003 41.4749 246.489 40.999C246.976 40.5123 247.349 39.9336 247.609 39.263C247.879 38.5815 248.014 37.8244 248.014 36.9915V33.195Z" fill="url(#paint24_linear_154_4430)"/>
<defs>
<linearGradient id="paint0_linear_154_4430" x1="34.0268" y1="49.2685" x2="26.035" y2="59.2255" gradientUnits="userSpaceOnUse">
<stop stop-color="#0B09B8"/>
<stop offset="1" stop-color="#0078D3"/>
</linearGradient>
<linearGradient id="paint1_linear_154_4430" x1="43.4146" y1="20.7881" x2="25.1272" y2="47.1405" gradientUnits="userSpaceOnUse">
<stop stop-color="#0B09B8"/>
<stop offset="1" stop-color="#0078D3"/>
</linearGradient>
<linearGradient id="paint2_linear_154_4430" x1="31.885" y1="17.0495" x2="44.8602" y2="46.9498" gradientUnits="userSpaceOnUse">
<stop stop-color="#FF3AB4"/>
<stop offset="1" stop-color="#4800D8"/>
</linearGradient>
<linearGradient id="paint3_linear_154_4430" x1="40.6489" y1="25.8164" x2="33.3777" y2="57.2597" gradientUnits="userSpaceOnUse">
<stop stop-color="#FF7D00"/>
<stop offset="1" stop-color="#D9009C"/>
</linearGradient>
<linearGradient id="paint4_linear_154_4430" x1="27.2119" y1="15.0733" x2="31.9809" y2="34.4675" gradientUnits="userSpaceOnUse">
<stop stop-color="#00A2BE"/>
<stop offset="1" stop-color="#4D1FFC"/>
</linearGradient>
<linearGradient id="paint5_linear_154_4430" x1="29.6198" y1="14.5047" x2="37.7459" y2="33.0656" gradientUnits="userSpaceOnUse">
<stop stop-color="#6B40FF"/>
<stop offset="1" stop-color="#0178D3"/>
</linearGradient>
<linearGradient id="paint6_linear_154_4430" x1="34.4971" y1="11.5145" x2="34.934" y2="14.7497" gradientUnits="userSpaceOnUse">
<stop stop-color="#FF3AB4"/>
<stop offset="1" stop-color="#4800D8"/>
</linearGradient>
<linearGradient id="paint7_linear_154_4430" x1="32.055" y1="5.73657" x2="31.2944" y2="12.8774" gradientUnits="userSpaceOnUse">
<stop stop-color="#00FFFF"/>
<stop offset="1" stop-color="#0078D3"/>
</linearGradient>
<linearGradient id="paint8_linear_154_4430" x1="47.0336" y1="24.8633" x2="45.4238" y2="28.5921" gradientUnits="userSpaceOnUse">
<stop stop-color="#FF8400"/>
<stop offset="1" stop-color="#880058"/>
</linearGradient>
<linearGradient id="paint9_linear_154_4430" x1="30.3829" y1="28.4901" x2="33.9456" y2="32.0527" gradientUnits="userSpaceOnUse">
<stop stop-color="#FF5F6D"/>
<stop offset="1" stop-color="#FFC371"/>
</linearGradient>
<linearGradient id="paint10_linear_154_4430" x1="32.3955" y1="26.7134" x2="32.8325" y2="29.9487" gradientUnits="userSpaceOnUse">
<stop stop-color="#00DAFF"/>
<stop offset="1" stop-color="#0256DA"/>
</linearGradient>
<linearGradient id="paint11_linear_154_4430" x1="36.3599" y1="24.739" x2="35.7335" y2="30.6197" gradientUnits="userSpaceOnUse">
<stop stop-color="#0200A4"/>
<stop offset="1" stop-color="#0078D3"/>
</linearGradient>
<linearGradient id="paint12_linear_154_4430" x1="35.9884" y1="31.1949" x2="39.5511" y2="34.7576" gradientUnits="userSpaceOnUse">
<stop stop-color="#FF5F6D"/>
<stop offset="1" stop-color="#FFC371"/>
</linearGradient>
<linearGradient id="paint13_linear_154_4430" x1="38.001" y1="29.4183" x2="38.438" y2="32.6535" gradientUnits="userSpaceOnUse">
<stop stop-color="#00DAFF"/>
<stop offset="1" stop-color="#0256DA"/>
</linearGradient>
<linearGradient id="paint14_linear_154_4430" x1="41.9653" y1="27.4439" x2="41.3389" y2="33.3245" gradientUnits="userSpaceOnUse">
<stop stop-color="#0200A4"/>
<stop offset="1" stop-color="#0078D3"/>
</linearGradient>
<linearGradient id="paint15_linear_154_4430" x1="31.9067" y1="35.2185" x2="31.2803" y2="41.0992" gradientUnits="userSpaceOnUse">
<stop stop-color="#0200A4"/>
<stop offset="1" stop-color="#0078D3"/>
</linearGradient>
<linearGradient id="paint16_linear_154_4430" x1="21.7423" y1="33.2054" x2="25.305" y2="36.7681" gradientUnits="userSpaceOnUse">
<stop stop-color="#FF5F6D"/>
<stop offset="1" stop-color="#FFC371"/>
</linearGradient>
<linearGradient id="paint17_linear_154_4430" x1="23.7549" y1="31.4288" x2="24.1919" y2="34.664" gradientUnits="userSpaceOnUse">
<stop stop-color="#00DAFF"/>
<stop offset="1" stop-color="#0256DA"/>
</linearGradient>
<linearGradient id="paint18_linear_154_4430" x1="27.7192" y1="29.4544" x2="27.0928" y2="35.335" gradientUnits="userSpaceOnUse">
<stop stop-color="#0200A4"/>
<stop offset="1" stop-color="#0078D3"/>
</linearGradient>
<linearGradient id="paint19_linear_154_4430" x1="22.3721" y1="17.3007" x2="17.3936" y2="30.5331" gradientUnits="userSpaceOnUse">
<stop stop-color="#01A6F0"/>
<stop offset="1" stop-color="#0259B1"/>
</linearGradient>
<linearGradient id="paint20_linear_154_4430" x1="35.2861" y1="47.4529" x2="35.7231" y2="50.6882" gradientUnits="userSpaceOnUse">
<stop stop-color="#FF3AB4"/>
<stop offset="1" stop-color="#4800D8"/>
</linearGradient>
<linearGradient id="paint21_linear_154_4430" x1="43.6587" y1="37.9206" x2="31.2724" y2="61.7156" gradientUnits="userSpaceOnUse">
<stop stop-color="#FF8400"/>
<stop offset="1" stop-color="#880058"/>
</linearGradient>
<linearGradient id="paint22_linear_154_4430" x1="20.149" y1="34.4638" x2="19.0228" y2="45.8132" gradientUnits="userSpaceOnUse">
<stop stop-color="#0259B1"/>
<stop offset="1" stop-color="#01A6F0"/>
</linearGradient>
<linearGradient id="paint23_linear_154_4430" x1="20.5421" y1="41.5385" x2="26.1184" y2="46.7712" gradientUnits="userSpaceOnUse">
<stop stop-color="#0156C5"/>
<stop offset="1" stop-color="#062B7D"/>
</linearGradient>
<linearGradient id="paint24_linear_154_4430" x1="53.2539" y1="34.7263" x2="254.254" y2="34.7263" gradientUnits="userSpaceOnUse">
<stop stop-color="#008DFF"/>
<stop offset="0.406599" stop-color="#763AE5"/>
<stop offset="1" stop-color="#FF7627"/>
</linearGradient>
</defs>
</svg>
